<?xml version="1.0" standalone="yes"?>

<svg version="1.1" viewBox="0.0 0.0 841.8451443569554 148.83202099737534" fill="none" stroke="none" stroke-linecap="square" stroke-miterlimit="10" xmlns="http://www.w3.org/2000/svg" xmlns:xlink="http://www.w3.org/1999/xlink"><clipPath id="p.0"><path d="m0 0l841.84515 0l0 148.83202l-841.84515 0l0 -148.83202z" clip-rule="nonzero"></path></clipPath><g clip-path="url(#p.0)"><path fill="#000000" fill-opacity="0.0" d="m0 0l841.84515 0l0 148.83202l-841.84515 0z" fill-rule="nonzero"></path><path fill="#d9d2e9" d="m15.209973 12.283464l815.4016 0l0 123.14961l-815.4016 0z" fill-rule="nonzero"></path><path fill="#000000" d="m57.769512 90.93826q-0.71875 -1.625 -1.25 -2.96875q-0.53125 -1.34375 -1.03125 -2.6875q-0.5 -1.359375 -1.015625 -2.8125q-0.5 -1.46875 -1.171875 -3.34375q-0.671875 1.875 -1.203125 3.34375q-0.53125 1.453125 -1.03125 2.8125q-0.5 1.34375 -1.0625 2.6875q-0.546875 1.34375 -1.265625 2.96875l-2.96875 0q-1.34375 -5.90625 -2.234375 -11.6875q-0.890625 -5.78125 -1.328125 -10.578125l3.75 0q0.140625 1.859375 0.3125 3.671875q0.171875 1.796875 0.40625 3.765625q0.234375 1.96875 0.546875 4.28125q0.3125 2.296875 0.703125 5.171875q0.765625 -1.921875 1.296875 -3.359375q0.53125 -1.4375 0.953125 -2.734375q0.4375 -1.296875 0.84375 -2.640625q0.40625 -1.34375 0.890625 -3.03125l2.96875 0q0.484375 1.6875 0.859375 3.03125q0.390625 1.34375 0.828125 2.640625q0.4375 1.296875 0.90625 2.734375q0.484375 1.4375 1.203125 3.3125q0.4375 -2.640625 0.765625 -4.890625q0.34375 -2.265625 0.578125 -4.25q0.234375 -2.0 0.421875 -3.859375q0.203125 -1.875 0.34375 -3.84375l3.6093788 0q-0.25 2.390625 -0.5937538 5.125q-0.328125 2.734375 -0.8125 5.625q-0.46875 2.875 -1.046875 5.828125q-0.578125 2.953125 -1.203125 5.6875l-2.96875 0zm29.609425 -11.140625q0 2.640625 -0.75 4.78125q-0.734375 2.140625 -2.078125 3.671875q-1.34375 1.53125 -3.21875 2.375q-1.875 0.84375 -4.078125 0.84375q-2.15625 0 -4.015625 -0.84375q-1.84375 -0.84375 -3.1875 -2.375q-1.34375 -1.53125 -2.09375 -3.671875q-0.734375 -2.140625 -0.734375 -4.78125q0 -2.640625 0.734375 -4.796875q0.75 -2.15625 2.09375 -3.671875q1.34375 -1.515625 3.1875 -2.34375q1.859375 -0.84375 4.015625 -0.84375q2.203125 0 4.078125 0.84375q1.875 0.828125 3.21875 2.34375q1.34375 1.515625 2.078125 3.671875q0.75 2.15625 0.75 4.796875zm-4.078125 0q0 -3.78125 -1.640625 -5.96875q-1.625 -2.1875 -4.40625 -2.1875q-2.734375 0 -4.34375 2.1875q-1.609375 2.1875 -1.609375 5.96875q0 3.75 1.609375 5.9375q1.609375 2.171875 4.34375 2.171875q2.78125 0 4.40625 -2.171875q1.640625 -2.1875 1.640625 -5.9375zm11.140671 11.140625l0 -21.078125q4.890625 -1.671875 9.890625 -1.671875q1.53125 0 2.921875 0.125q1.390625 0.109375 3.078125 0.5l-0.734375 3.5q-1.53125 -0.4375 -2.703125 -0.546875q-1.171875 -0.125 -2.5625 -0.125q-2.9375 0 -5.953125 0.8125l0 18.484375l-3.9375 0zm35.468796 -17.5625q-0.671875 -0.625 -1.96875 -1.171875q-1.296875 -0.5625 -2.6875 -0.5625q-1.578125 0 -2.71875 0.625q-1.125 0.625 -1.84375 1.703125q-0.71875 1.078125 -1.0625 2.59375q-0.328125 1.515625 -0.328125 3.234375q0 3.890625 1.8125 6.0q1.828125 2.109375 4.765625 2.109375q1.484375 0 2.515625 -0.140625q1.03125 -0.140625 1.515625 -0.28125l0 -14.109375zm0 -15.031246l3.984375 -0.671875l0 32.64062q-1.296875 0.390625 -3.3125 0.765625q-2.015625 0.390625 -4.703125 0.390625q-2.40625 0 -4.375 -0.8125q-1.96875 -0.828125 -3.359375 -2.328125q-1.390625 -1.515625 -2.15625 -3.671875q-0.765625 -2.171875 -0.765625 -4.859375q0 -2.59375 0.640625 -4.71875q0.65625 -2.140625 1.90625 -3.671875q1.25 -1.546875 3.0 -2.40625q1.75 -0.859375 4.0 -0.859375q1.78125 0 3.125 0.4375q1.34375 0.421875 2.015625 0.90625l0 -11.140621z" fill-rule="nonzero"></path><path fill="#999999" d="m183.78537 77.62576q3.515625 3.890625 6.28125 5.0625l0 0.703125q-1.53125 0.703125 -2.953125 1.84375q-1.40625 1.125 -3.359375 3.3125l-1.171875 0q1.4375 -3.046875 3.0 -4.6875l-24.234375 0l0 -1.546875l24.234375 0q-1.140625 -1.4375 -1.609375 -2.171875q-0.453125 -0.734375 -1.359375 -2.515625l1.171875 0z" fill-rule="nonzero"></path><path fill="#000000" d="m234.26198 68.81326q0 1.53125 -0.609375 2.96875q-0.59375 1.4375 -1.578125 2.84375q-0.984375 1.390625 -2.234375 2.734375q-1.234375 1.34375 -2.53125 2.640625q-0.71875 0.71875 -1.6875 1.734375q-0.953125 1.0 -1.828125 2.0625q-0.859375 1.046875 -1.4375 2.0625q-0.5625 1.0 -0.5625 1.71875l13.671875 0l0 3.359375l-18.0 0q-0.046875 -0.234375 -0.046875 -0.5q0 -0.265625 0 -0.515625q0 -2.015625 0.671875 -3.734375q0.671875 -1.734375 1.71875 -3.265625q1.0625 -1.53125 2.375 -2.890625q1.328125 -1.375 2.625 -2.671875q1.0625 -1.0625 2.046875 -2.0625q0.984375 -1.015625 1.71875 -2.015625q0.75 -1.015625 1.203125 -2.09375q0.453125 -1.078125 0.453125 -2.234375q0 -1.296875 -0.40625 -2.203125q-0.40625 -0.921875 -1.109375 -1.515625q-0.6875 -0.59375 -1.609375 -0.875q-0.90625 -0.296875 -1.953125 -0.296875q-1.25 0 -2.28125 0.34375q-1.03125 0.328125 -1.828125 0.8125q-0.796875 0.46875 -1.375 0.921875q-0.578125 0.453125 -0.859375 0.75l-1.96875 -2.78125q0.390625 -0.4374962 1.15625 -1.0624962q0.765625 -0.625 1.84375 -1.171875q1.078125 -0.546875 2.421875 -0.9375q1.34375 -0.390625 2.890625 -0.390625q4.65625 0 6.875 2.140625q2.234375 2.1406212 2.234375 6.124996z" fill-rule="nonzero"></path><path fill="#999999" d="m284.59018 77.62576q3.515625 3.890625 6.28125 5.0625l0 0.703125q-1.53125 0.703125 -2.953125 1.84375q-1.40625 1.125 -3.359375 3.3125l-1.171875 0q1.4375 -3.046875 3.0 -4.6875l-24.234375 0l0 -1.546875l24.234375 0q-1.140625 -1.4375 -1.609375 -2.171875q-0.453125 -0.734375 -1.359375 -2.515625l1.171875 0z" fill-rule="nonzero"></path><path fill="#000000" d="m337.47302 68.67264q-0.859375 3.109375 -1.96875 6.109375q-1.109375 3.0 -2.265625 5.859375q-1.140625 2.859375 -2.34375 5.453125q-1.203125 2.59375 -2.296875 4.84375l-3.609375 0q-2.25 -4.515625 -4.5625 -10.265625q-2.296875 -5.765625 -4.078125 -12.0l4.328125 0q0.578125 2.109375 1.3125 4.46875q0.75 2.34375 1.5625 4.703125q0.8125 2.34375 1.65625 4.53125q0.84375 2.171875 1.65625 3.90625q0.8125 -1.734375 1.703125 -3.90625q0.890625 -2.1875 1.75 -4.53125q0.859375 -2.359375 1.65625 -4.703125q0.796875 -2.359375 1.375 -4.46875l4.125 0zm13.875061 -0.53125q4.5 0 6.953125 2.8125q2.453125 2.796875 2.453125 8.515625l0 1.390625l-15.9375 0q0.234375 3.453125 2.265625 5.25q2.046875 1.796875 5.75 1.796875q2.109375 0 3.59375 -0.328125q1.5 -0.34375 2.265625 -0.71875l0.515625 3.359375q-0.71875 0.375 -2.59375 0.8125q-1.859375 0.4375 -4.21875 0.4375q-2.875 0 -5.0625 -0.890625q-2.1875 -0.890625 -3.625 -2.421875q-1.4375 -1.53125 -2.15625 -3.671875q-0.71875 -2.140625 -0.71875 -4.640625q0 -2.96875 0.90625 -5.171875q0.921875 -2.21875 2.40625 -3.65625q1.484375 -1.4375 3.359375 -2.15625q1.875 -0.71875 3.84375 -0.71875zm5.375 9.5q0 -2.828125 -1.5 -4.484375q-1.484375 -1.65625 -3.921875 -1.65625q-1.40625 0 -2.53125 0.53125q-1.125 0.515625 -1.9375 1.390625q-0.8125 0.859375 -1.296875 1.96875q-0.484375 1.09375 -0.625 2.25l11.8125 0zm8.546936 2.203125q0 -3.015625 0.953125 -5.21875q0.953125 -2.21875 2.625 -3.65625q1.6875 -1.4375 3.921875 -2.125q2.234375 -0.703125 4.78125 -0.703125q1.625 0 3.234375 0.21875q1.609375 0.203125 3.4375 0.78125l-0.90625 3.40625q-1.59375 -0.5625 -2.921875 -0.734375q-1.3125 -0.171875 -2.65625 -0.171875q-1.71875 0 -3.265625 0.453125q-1.53125 0.453125 -2.65625 1.4375q-1.125 0.984375 -1.796875 2.546875q-0.671875 1.5625 -0.671875 3.765625q0 2.125 0.625 3.640625q0.625 1.5 1.75 2.484375q1.125 0.984375 2.703125 1.46875q1.59375 0.46875 3.515625 0.46875q1.53125 0 2.9375 -0.15625q1.421875 -0.171875 3.109375 -0.75l0.5625 3.3125q-1.671875 0.625 -3.40625 0.890625q-1.71875 0.265625 -3.734375 0.265625q-2.6875 0 -4.921875 -0.734375q-2.234375 -0.75 -3.84375 -2.1875q-1.609375 -1.453125 -2.5 -3.625q-0.875 -2.1875 -0.875 -5.078125z" fill-rule="nonzero"></path><path fill="#999999" d="m433.3951 77.62576q3.515625 3.890625 6.28125 5.0625l0 0.703125q-1.53125 0.703125 -2.953125 1.84375q-1.40625 1.125 -3.359375 3.3125l-1.171875 0q1.4375 -3.046875 3.0 -4.6875l-24.234375 0l0 -1.546875l24.234375 0q-1.140625 -1.4375 -1.609375 -2.171875q-0.453125 -0.734375 -1.359375 -2.515625l1.171875 0z" fill-rule="nonzero"></path><path fill="#000000" d="m465.44983 80.67264q0.8125 -1.921875 2.21875 -4.421875q1.421875 -2.5 3.1875 -5.15625q1.78125 -2.671875 3.796875 -5.234375q2.015625 -2.5624962 4.09375 -4.640621l3.828125 0l0 18.874996l3.515625 0l0 3.265625l-3.515625 0l0 7.578125l-3.828125 0l0 -7.578125l-13.296875 0l0 -2.6875zm13.296875 -14.75q-1.296875 1.40625 -2.625 3.09375q-1.3125 1.671875 -2.5625 3.515625q-1.25 1.84375 -2.328125 3.765625q-1.078125 1.921875 -1.953125 3.796875l9.46875 0l0 -14.171875z" fill-rule="nonzero"></path><path fill="#999999" d="m534.19995 77.62576q3.515625 3.890625 6.28125 5.0625l0 0.703125q-1.53125 0.703125 -2.953125 1.84375q-1.40625 1.125 -3.359375 3.3125l-1.171875 0q1.4375 -3.046875 3.0 -4.6875l-24.234406 0l0 -1.546875l24.234406 0q-1.140625 -1.4375 -1.609375 -2.171875q-0.453125 -0.734375 -1.359375 -2.515625l1.171875 0z" fill-rule="nonzero"></path><path fill="#000000" d="m576.9578 68.14139q4.5 0 6.953125 2.8125q2.453125 2.796875 2.453125 8.515625l0 1.390625l-15.9375 0q0.234375 3.453125 2.265625 5.25q2.046875 1.796875 5.75 1.796875q2.109375 0 3.59375 -0.328125q1.5 -0.34375 2.265625 -0.71875l0.515625 3.359375q-0.71875 0.375 -2.59375 0.8125q-1.859375 0.4375 -4.21875 0.4375q-2.875 0 -5.0625 -0.890625q-2.1875 -0.890625 -3.625 -2.421875q-1.4375 -1.53125 -2.15625 -3.671875q-0.71875 -2.140625 -0.71875 -4.640625q0 -2.96875 0.90625 -5.171875q0.921875 -2.21875 2.40625 -3.65625q1.484375 -1.4375 3.359375 -2.15625q1.875 -0.71875 3.84375 -0.71875zm5.375 9.5q0 -2.828125 -1.5 -4.484375q-1.484375 -1.65625 -3.921875 -1.65625q-1.40625 0 -2.53125 0.53125q-1.125 0.515625 -1.9375 1.390625q-0.8125 0.859375 -1.296875 1.96875q-0.484375 1.09375 -0.625 2.25l11.8125 0zm28.750061 -8.96875q-0.859375 3.109375 -1.96875 6.109375q-1.109375 3.0 -2.265625 5.859375q-1.140625 2.859375 -2.34375 5.453125q-1.203125 2.59375 -2.296875 4.84375l-3.609375 0q-2.25 -4.515625 -4.5625 -10.265625q-2.296875 -5.765625 -4.078125 -12.0l4.328125 0q0.578125 2.109375 1.3125 4.46875q0.75 2.34375 1.5625 4.703125q0.8125 2.34375 1.65625 4.53125q0.84375 2.171875 1.65625 3.90625q0.8125 -1.734375 1.703125 -3.90625q0.890625 -2.1875 1.75 -4.53125q0.859375 -2.359375 1.65625 -4.703125q0.796875 -2.359375 1.375 -4.46875l4.125 0zm13.875 -0.53125q4.5 0 6.953125 2.8125q2.453125 2.796875 2.453125 8.515625l0 1.390625l-15.9375 0q0.234375 3.453125 2.265625 5.25q2.046875 1.796875 5.75 1.796875q2.109375 0 3.59375 -0.328125q1.5 -0.34375 2.265625 -0.71875l0.515625 3.359375q-0.71875 0.375 -2.59375 0.8125q-1.859375 0.4375 -4.21875 0.4375q-2.875 0 -5.0625 -0.890625q-2.1875 -0.890625 -3.625 -2.421875q-1.4375 -1.53125 -2.15625 -3.671875q-0.71875 -2.140625 -0.71875 -4.640625q0 -2.96875 0.90625 -5.171875q0.921875 -2.21875 2.40625 -3.65625q1.484375 -1.4375 3.359375 -2.15625q1.875 -0.71875 3.84375 -0.71875zm5.375 9.5q0 -2.828125 -1.5 -4.484375q-1.484375 -1.65625 -3.921875 -1.65625q-1.40625 0 -2.53125 0.53125q-1.125 0.515625 -1.9375 1.390625q-0.8125 0.859375 -1.296875 1.96875q-0.484375 1.09375 -0.625 2.25l11.8125 0zm11.328186 13.296875l0 -21.078125q4.890625 -1.671875 9.890625 -1.671875q1.53125 0 2.921875 0.125q1.390625 0.109375 3.078125 0.5l-0.734375 3.5q-1.53125 -0.4375 -2.703125 -0.546875q-1.171875 -0.125 -2.5625 -0.125q-2.9375 0 -5.953125 0.8125l0 18.484375l-3.9375 0zm21.312561 4.171875q0.421875 0.25 1.21875 0.390625q0.796875 0.140625 1.46875 0.140625q2.34375 0 3.65625 -1.03125q1.328125 -1.03125 2.4375 -3.390625q-2.6875 -5.078125 -5.046875 -10.90625q-2.34375 -5.84375 -3.890625 -11.640625l4.328125 0q0.484375 1.90625 1.125 4.140625q0.65625 2.234375 1.46875 4.59375q0.8125 2.34375 1.75 4.71875q0.9375 2.375 1.984375 4.546875q0.78125 -2.21875 1.453125 -4.375q0.671875 -2.15625 1.234375 -4.34375q0.578125 -2.1875 1.15625 -4.46875q0.578125 -2.28125 1.203125 -4.8125l4.125 0q-1.53125 6.234375 -3.4375 12.09375q-1.890625 5.859375 -4.046875 10.84375q-0.8125 1.921875 -1.75 3.3125q-0.9375 1.390625 -2.046875 2.296875q-1.09375 0.921875 -2.5 1.34375q-1.390625 0.4375 -3.15625 0.4375q-0.921875 0 -2.0 -0.25q-1.078125 -0.234375 -1.453125 -0.421875l0.71875 -3.21875zm33.203125 -26.4375l9.421875 0l0 3.3125l-9.421875 0l0 10.359375q0 1.6875 0.234375 2.75q0.25 1.046875 0.796875 1.703125q0.5625 0.640625 1.421875 0.875q0.859375 0.234375 2.109375 0.234375q1.734375 0 2.78125 -0.28125q1.0625 -0.28125 2.03125 -0.765625l0.5625 3.359375q-0.671875 0.28125 -2.140625 0.765625q-1.453125 0.484375 -3.609375 0.484375q-2.5 0 -4.09375 -0.578125q-1.578125 -0.578125 -2.46875 -1.71875q-0.875 -1.15625 -1.21875 -2.859375q-0.328125 -1.71875 -0.328125 -3.96875l0 -10.359375l-4.703125 0l0 -3.3125l4.703125 0l0 -6.249996l3.921875 -0.671875l0 6.921871zm15.750061 22.265625l0 -32.593746l3.984375 -0.671875l0 11.328121q0.96875 -0.375 2.15625 -0.59375q1.203125 -0.21875 2.359375 -0.21875q2.546875 0 4.25 0.75q1.703125 0.734375 2.703125 2.078125q1.015625 1.34375 1.4375 3.21875q0.4375 1.875 0.4375 4.125l0 12.578125l-3.9375 0l0 -11.71875q0 -4.125 -1.15625 -5.828125q-1.140625 -1.703125 -4.125 -1.703125q-1.25 0 -2.421875 0.265625q-1.171875 0.265625 -1.703125 0.5l0 18.484375l-3.984375 0zm30.625061 -25.734375q-1.25 0 -2.171875 -0.859375q-0.90625 -0.8593712 -0.90625 -2.3437462q0 -1.5 0.90625 -2.359375q0.921875 -0.859375 2.171875 -0.859375q1.296875 0 2.1875 0.859375q0.890625 0.859375 0.890625 2.359375q0 1.484375 -0.890625 2.3437462q-0.890625 0.859375 -2.1875 0.859375zm-1.0 6.78125l-6.4375 0l0 -3.3125l10.359375 0l0 13.671875q0 3.3125 0.90625 4.4375q0.921875 1.125 2.75 1.125q1.390625 0 2.5625 -0.328125q1.1875 -0.34375 1.859375 -0.71875l0.5625 3.359375q-0.28125 0.140625 -0.8125 0.359375q-0.53125 0.21875 -1.234375 0.40625q-0.6875 0.1875 -1.53125 0.328125q-0.828125 0.15625 -1.75 0.15625q-2.109375 0 -3.5 -0.578125q-1.390625 -0.578125 -2.234375 -1.71875q-0.828125 -1.15625 -1.171875 -2.859375q-0.328125 -1.71875 -0.328125 -3.96875l0 -10.359375zm18.375061 -2.6875q2.15625 -0.53125 4.296875 -0.8125q2.140625 -0.296875 4.015625 -0.296875q4.453125 0 6.734375 2.3125q2.28125 2.296875 2.28125 7.375l0 13.0625l-3.9375 0l0 -12.34375q0 -2.15625 -0.390625 -3.5q-0.375 -1.34375 -1.078125 -2.078125q-0.6875 -0.75 -1.671875 -1.03125q-0.984375 -0.296875 -2.140625 -0.296875q-0.953125 0 -2.03125 0.125q-1.078125 0.109375 -2.09375 0.3125l0 18.8125l-3.984375 0l0 -21.640625zm37.203186 19.578125q-0.671875 0.375 -2.0625 0.8125q-1.390625 0.4375 -3.21875 0.4375q-1.96875 0 -3.671875 -0.640625q-1.703125 -0.65625 -2.984375 -1.96875q-1.265625 -1.328125 -2.015625 -3.359375q-0.734375 -2.046875 -0.734375 -4.828125q0 -2.453125 0.6875 -4.484375q0.703125 -2.046875 2.015625 -3.53125q1.328125 -1.5 3.25 -2.328125q1.921875 -0.84375 4.359375 -0.84375q2.890625 0 4.921875 0.40625q2.046875 0.40625 3.4375 0.796875l0 19.859375q0 5.1875 -2.625 7.484375q-2.609375 2.3125 -7.890625 2.3125q-2.15625 0 -3.90625 -0.34375q-1.75 -0.328125 -3.09375 -0.8125l0.71875 -3.5q1.25 0.53125 2.84375 0.859375q1.609375 0.34375 3.53125 0.34375q3.453125 0 4.9375 -1.390625q1.5 -1.390625 1.5 -4.515625l0 -0.765625zm0 -16.703125q-0.578125 -0.1875 -1.59375 -0.359375q-1.0 -0.171875 -2.734375 -0.171875q-3.0625 0 -4.671875 2.109375q-1.609375 2.109375 -1.609375 5.625q0 1.921875 0.453125 3.296875q0.453125 1.359375 1.25 2.25q0.796875 0.875 1.796875 1.296875q1.015625 0.40625 2.15625 0.40625q1.5 0 2.8125 -0.4375q1.328125 -0.4375 2.140625 -1.015625l0 -13.0z" fill-rule="nonzero"></path></g></svg>

